<svg width="223" height="212" viewBox="0 0 223 212" fill="none" xmlns="http://www.w3.org/2000/svg">
<path d="M74.0994 209.803C72.7517 208.974 71.7409 208.094 71.0671 207.162C70.3932 206.281 70.0563 205.426 70.0563 204.598C70.0563 203.51 70.6006 202.63 71.6891 201.956C71.8964 201.853 72.1815 201.801 72.5443 201.801C73.0627 201.801 73.6069 201.904 74.1771 202.112C74.7991 202.267 75.2656 202.5 75.5766 202.811C76.9243 204.054 78.5312 204.675 80.3972 204.675C81.2266 204.675 82.4187 204.494 83.9738 204.132C85.9953 203.51 87.5762 202.733 88.7166 201.801C89.9088 200.869 91.3083 199.418 92.9151 197.45C93.9 196.155 94.6257 194.86 95.0922 193.565C95.6105 192.219 95.8697 191.002 95.8697 189.914C95.8697 188.723 95.5846 187.79 95.0144 187.117C93.9777 185.719 92.8115 184.683 91.5156 184.009C90.2716 183.284 88.7943 182.922 87.0838 182.922C85.5806 182.922 84.1033 183.129 82.652 183.543L78.1424 184.476C77.9351 184.527 77.65 184.579 77.2872 184.631C76.9762 184.631 76.5097 185.382 75.8876 186.884C75.2656 188.386 74.203 191.235 72.6999 195.43C71.6113 198.486 70.7042 200.687 69.9786 202.034C69.2529 203.329 68.605 203.976 68.0348 203.976C67.4128 203.976 66.7389 203.406 66.0133 202.267C65.8578 202.008 65.5208 201.49 65.0025 200.713C64.536 199.936 64.3027 199.185 64.3027 198.46C64.3027 198.098 64.4323 197.657 64.6915 197.139C64.9507 196.673 65.158 196.207 65.3135 195.741C65.5208 195.275 65.7282 194.627 65.9355 193.799C66.6094 191.779 68.5531 186.754 71.7668 178.726C75.0324 170.698 77.5723 164.638 79.3864 160.546C80.6823 157.594 81.0711 156.04 80.5527 155.885C80.5527 155.729 80.475 155.496 80.3195 155.186C80.164 154.875 80.1121 154.642 80.164 154.486C80.164 154.176 81.0711 153.709 82.8852 153.088C84.7513 152.466 86.0212 152.207 86.695 152.311H87.1616C87.8354 152.311 88.1723 152.182 88.1723 151.923C88.276 151.923 88.7425 151.871 89.5718 151.767C90.453 151.664 91.386 151.664 92.3709 151.767C96.0511 152.078 98.9538 153.14 101.079 154.953C103.204 156.714 104.241 159.329 104.189 162.799C104.085 164.146 103.334 165.985 101.934 168.316C100.535 170.646 99.0056 172.563 97.3469 174.065C96.5176 174.79 95.5587 175.567 94.4702 176.396C93.4335 177.172 92.7596 177.665 92.4486 177.872L94.3924 178.571C96.8286 179.503 98.7205 180.643 100.068 181.989C101.416 183.336 102.375 185.175 102.945 187.506C103.049 188.023 103.101 188.49 103.101 188.904C103.101 190.043 102.893 191.338 102.479 192.789C102.116 194.239 101.701 195.508 101.235 196.595C100.923 196.906 100.664 197.243 100.457 197.605C100.25 197.968 100.12 198.201 100.068 198.305C100.016 198.512 99.5499 199.315 98.6687 200.713C97.7875 202.06 97.01 203.148 96.3362 203.976C92.9151 206.877 90.0902 208.741 87.8613 209.57C85.6843 210.554 83.0926 211.046 80.0862 211.046C77.3908 211.046 75.3952 210.632 74.0994 209.803ZM79.6974 177.561C80.2158 177.457 81.2525 177.25 82.8075 176.939C84.3625 176.577 85.4769 176.266 86.1508 176.007C86.2545 175.955 86.5655 175.8 87.0838 175.541C87.654 175.23 88.2242 174.79 88.7943 174.22C92.0599 171.164 94.3406 168.419 95.6364 165.985C96.9323 163.861 97.5802 162.359 97.5802 161.479C97.5802 160.857 97.2951 160.261 96.7249 159.692C95.7401 158.552 94.1073 157.983 91.8266 157.983C90.8418 157.983 90.0124 158.086 89.3386 158.293C88.6129 158.5 88.0686 158.759 87.7058 159.07C87.3948 159.329 87.2393 159.744 87.2393 160.313C87.2393 160.728 87.1097 161.194 86.8505 161.712C86.5914 162.178 86.3063 162.566 85.9953 162.877C85.9435 163.188 85.788 163.499 85.5288 163.809C85.3214 164.12 85.1659 164.327 85.0623 164.431C85.0623 164.535 84.6994 165.234 83.9738 166.529C83.2999 167.824 82.652 169.274 82.03 170.879C80.475 174.557 79.6974 176.784 79.6974 177.561Z" fill="black"/>
<path d="M113.553 206.929C111.532 205.426 109.977 204.08 108.888 202.889C107.8 201.697 107.229 200.558 107.178 199.47C107.126 199.211 107.1 198.745 107.1 198.072C107.1 196.621 107.229 194.809 107.489 192.633C107.748 190.458 108.007 188.723 108.266 187.428C108.473 187.221 108.577 186.91 108.577 186.496C108.629 186.081 108.629 185.822 108.577 185.719C108.577 185.563 108.707 185.045 108.966 184.165C109.588 182.248 110.028 180.643 110.288 179.348C111.687 175.101 113.061 171.708 114.408 169.17C115.756 166.632 117.259 164.25 118.918 162.022C122.443 158.397 126.201 155.652 130.192 153.787C132.213 152.596 133.665 152 134.546 152C134.701 152 134.935 152.052 135.246 152.156C141.621 153.554 145.431 157.594 146.675 164.276C147.142 167.435 147.375 169.818 147.375 171.423C147.375 174.013 146.908 176.629 145.975 179.27C145.042 181.912 143.358 185.227 140.922 189.215C138.848 193.358 136.49 196.906 133.846 199.859C131.255 202.759 128.637 204.934 125.993 206.385C123.402 207.835 120.965 208.56 118.685 208.56C116.663 208.56 114.953 208.016 113.553 206.929ZM119.773 201.801C121.017 201.645 121.976 201.412 122.65 201.102C123.376 200.791 124.101 200.273 124.827 199.548C125.605 198.771 126.849 197.398 128.559 195.43C130.736 192.944 132.265 191.131 133.146 189.992C134.028 188.8 134.831 187.324 135.557 185.563C136.334 183.802 137.19 181.264 138.123 177.949L138.589 176.162C138.9 175.075 139.107 174.194 139.211 173.521C139.367 172.796 139.444 172.019 139.444 171.19L139.367 166.296C139.315 165.363 139.133 164.353 138.822 163.266C138.511 162.178 138.148 161.401 137.734 160.935C137.319 160.469 136.749 160.08 136.023 159.769C135.349 159.407 134.65 159.226 133.924 159.226C133.406 159.226 132.81 159.355 132.136 159.614C131.151 160.028 129.777 161.142 128.015 162.955C126.253 164.716 124.672 166.529 123.272 168.393C121.924 170.258 121.251 171.501 121.251 172.122C121.251 172.174 121.225 172.33 121.173 172.589C121.121 172.848 121.017 173.081 120.862 173.288C119.514 174.738 118.14 177.794 116.741 182.456C115.393 187.117 114.616 191.183 114.408 194.653C114.357 196.155 114.357 197.191 114.408 197.761C114.512 198.331 114.797 198.978 115.264 199.703C115.627 200.273 116.274 200.817 117.207 201.335C118.192 201.801 119.048 201.956 119.773 201.801Z" fill="black"/>
<path d="M177.123 209.959C177.331 209.751 177.071 209.389 176.346 208.871C175.62 208.405 175.154 208.275 174.946 208.482C174.791 208.482 174.661 208.405 174.557 208.249C174.506 208.146 174.454 207.99 174.402 207.783C174.35 207.576 174.272 207.369 174.169 207.162C174.272 207.058 174.324 206.903 174.324 206.695C174.324 206.385 174.143 205.867 173.78 205.142C173.78 204.624 173.598 204.028 173.236 203.355C172.873 202.63 172.665 202.215 172.614 202.112C172.614 201.801 172.562 201.464 172.458 201.102C172.354 200.739 172.277 200.506 172.225 200.402C172.225 199.988 171.966 199.263 171.447 198.227C171.24 197.761 171.059 197.321 170.903 196.906C170.799 196.44 170.722 196.129 170.67 195.974C169.685 193.591 168.882 191.597 168.26 189.992C168 189.37 167.741 188.8 167.482 188.282C167.275 187.764 167.119 187.428 167.016 187.272C166.912 187.013 166.679 186.573 166.316 185.952C166.005 185.33 165.849 184.838 165.849 184.476C165.849 183.699 165.72 183.31 165.461 183.31C165.409 183.207 165.305 183.051 165.15 182.844C165.046 182.585 164.89 182.352 164.683 182.145L164.294 180.591L163.672 182.067C163.413 182.222 163.18 182.637 162.973 183.31C162.765 183.932 162.532 184.372 162.273 184.631C158.333 190.38 156.079 193.384 155.508 193.643C155.612 193.643 155.664 193.695 155.664 193.799C155.664 194.109 155.353 194.575 154.731 195.197C154.057 196.129 153.513 197.062 153.098 197.994C153.046 198.201 152.891 198.771 152.632 199.703C152.372 200.584 151.699 201.801 150.61 203.355C150.247 204.183 149.625 204.805 148.744 205.219C147.915 205.634 147.215 205.841 146.645 205.841C146.075 205.634 145.556 204.986 145.09 203.899C144.675 202.811 144.468 201.697 144.468 200.558C144.468 199.781 144.571 199.185 144.779 198.771C145.556 197.424 146.697 195.508 148.2 193.022C149.755 190.536 150.714 189.111 151.077 188.749C151.18 188.593 151.388 188.308 151.699 187.894C152.01 187.48 152.347 187.117 152.709 186.806C153.487 185.719 154.109 184.812 154.575 184.087C155.042 183.31 155.586 182.378 156.208 181.29C156.415 181.083 156.623 180.85 156.83 180.591C157.038 180.332 157.297 180.047 157.608 179.736C158.074 179.115 158.515 178.597 158.929 178.182C159.189 177.82 159.577 177.535 160.096 177.328C160.614 177.069 160.951 176.732 161.106 176.318C161.366 176.007 161.547 175.722 161.651 175.463C161.806 175.204 161.884 174.816 161.884 174.298C161.884 173.883 160.899 171.579 158.929 167.383C157.012 163.188 155.69 160.572 154.964 159.536C154.342 158.449 154.031 157.387 154.031 156.351C154.031 154.953 154.653 154.046 155.897 153.632C156.001 153.58 156.234 153.554 156.597 153.554C157.374 153.554 158.23 153.761 159.163 154.176C160.096 154.538 160.666 154.978 160.873 155.496C161.288 155.496 161.962 156.636 162.895 158.915C163.154 159.64 163.646 160.883 164.372 162.644L165.616 165.674L167.093 169.403L169.27 166.218C171.396 163.784 172.821 162.307 173.547 161.789C173.961 161.53 174.298 161.297 174.557 161.09C174.817 160.831 174.998 160.65 175.102 160.546C175.102 160.132 175.957 159.251 177.667 157.905C179.378 156.558 180.518 155.885 181.089 155.885C181.711 155.885 182.41 156.299 183.188 157.128C183.965 157.905 184.458 158.759 184.665 159.692C184.665 160.935 183.913 161.997 182.41 162.877C180.492 164.379 178.989 165.648 177.901 166.684C176.864 167.72 175.205 169.533 172.925 172.122L169.27 175.463L169.737 176.706L170.359 178.182C170.566 178.545 170.774 178.985 170.981 179.503C171.188 179.969 171.396 180.384 171.603 180.746C171.966 181.575 172.406 182.456 172.925 183.388C173.806 185.252 174.531 187.065 175.102 188.826C176.398 191.83 177.045 193.514 177.045 193.876L179.456 200.169C180.441 202.345 180.933 204.209 180.933 205.763C180.933 206.799 180.7 207.628 180.233 208.249C179.767 208.923 179.119 209.492 178.289 209.959H177.123Z" fill="black"/>
<path fill-rule="evenodd" clip-rule="evenodd" d="M47.6859 75.6119C49.1656 75.0568 50.8527 74.3723 52.7797 73.5363C68.0133 66.9271 71.1612 66.2662 79.3156 68.0286C80.9531 68.3826 82.3732 68.7068 83.5934 68.9987C83.9283 70.0928 84.0958 71.4042 84.0958 72.9329C84.0958 76.6607 83.201 80.6992 81.4115 85.0483C79.622 89.3974 77.4824 92.6981 74.9927 94.9503C74.4481 95.494 73.7089 95.7658 72.7753 95.7658C71.8416 95.7658 70.8302 95.494 69.7409 94.9503C68.6516 94.4067 67.6791 93.7466 66.8232 92.9699C66.123 91.6497 65.734 90.873 65.6562 90.64C65.5784 90.407 65.734 90.2517 66.123 90.1741C66.8232 89.3198 67.8347 87.6888 69.1574 85.2813C70.5578 82.7961 71.4915 80.8545 71.9583 79.4566L72.6586 76.1947C73.1254 74.1755 73.3588 72.8552 73.3588 72.2339C73.3588 71.535 73.0865 70.9137 72.5419 70.37C72.3084 70.137 71.9972 70.0205 71.6082 70.0205C70.9858 70.0205 69.8965 70.4088 68.3404 71.1855C66.5509 71.9621 64.4113 73.5542 61.9216 75.9617C59.5096 78.2916 57.0977 81.0875 54.6858 84.3493C51.1068 89.0091 48.3447 92.8534 46.3996 95.8823C44.5323 98.9111 43.093 101.979 42.0815 105.085L40.7977 108.114C40.8755 108.425 40.7588 109.201 40.4476 110.444C40.1364 111.687 39.7863 112.696 39.3973 113.473C38.308 117.977 37.7634 122.055 37.7634 125.705C37.7634 128.578 38.0357 131.064 38.5803 133.16C39.2027 135.257 40.0586 136.811 41.1479 137.82C41.7703 138.364 42.665 138.636 43.8321 138.636C45.077 138.636 46.4774 138.364 48.0335 137.82C49.6674 137.199 51.3791 136.5 53.1686 135.723C54.9581 134.947 56.203 134.403 56.9032 134.092C58.6927 133.393 60.3655 132.578 61.9216 131.646C63.5555 130.714 64.7614 129.86 65.5395 129.083C67.5624 127.608 69.1963 126.87 70.4411 126.87C71.4526 126.559 72.2306 126.87 72.7753 127.802C73.3977 128.734 73.7089 130.015 73.7089 131.646C73.7089 132.733 72.9698 134.054 71.4915 135.607C70.0132 137.082 68.2626 138.403 66.2397 139.568C65.3839 140.422 63.4777 141.432 60.5211 142.597C58.0314 144.383 55.1137 145.975 51.7681 147.373C48.5004 148.771 45.5049 149.47 42.7817 149.47C42.1593 149.47 41.3813 149.392 40.4476 149.237C38.0357 148.382 35.7016 147.14 33.4452 145.509C31.2667 143.878 29.6717 141.82 28.6603 139.335C27.4154 135.84 26.793 131.724 26.793 126.986C26.793 122.404 27.0653 118.521 27.6099 115.337C28.1545 112.075 29.0882 108.774 30.4109 105.435L31.4612 102.988C32.7061 99.8043 33.6008 97.7074 34.1455 96.6977C35.4681 93.6689 37.8023 89.7469 41.1479 84.9318C43.8118 80.9432 45.9911 77.8366 47.6859 75.6119ZM82.5275 134.791C83.6946 136.112 84.9784 136.888 86.3788 137.121C88.6352 137.121 91.0082 135.296 93.4979 131.646C97.466 127.142 101.356 123.491 105.169 120.696C109.059 117.822 111.782 116.385 113.338 116.385C113.805 116.385 114.116 116.579 114.272 116.968C114.505 117.278 114.622 117.939 114.622 118.948C114.622 119.88 114.505 121.123 114.272 122.676C114.194 123.375 114.116 124.19 114.038 125.122C113.96 126.054 113.922 126.986 113.922 127.918C113.922 130.248 114.583 132.229 115.906 133.859C117.228 135.49 118.979 136.306 121.157 136.306C122.947 136.151 124.814 135.413 126.759 134.092C128.704 132.772 129.677 131.219 129.677 129.433C129.677 129.122 129.599 128.889 129.443 128.734C129.132 128.656 128.782 128.423 128.393 128.035C128.004 127.646 127.537 127.336 126.993 127.103C126.526 126.87 125.709 126.753 124.542 126.753C123.764 126.909 123.18 126.986 122.791 126.986C122.869 126.52 123.258 124.734 123.958 121.628C124.736 118.443 125.125 115.88 125.125 113.939V113.123V112.191C125.125 110.483 124.697 108.891 123.842 107.415C123.064 105.862 122.091 104.658 120.924 103.804C119.757 102.95 118.745 102.522 117.89 102.522C115.011 102.522 112.327 103.416 109.837 105.202L108.67 106.134C108.125 106.6 107.814 106.949 107.736 107.182C107.658 107.415 106.336 108.425 103.768 110.211C100.656 112.541 97.9717 114.832 95.7154 117.084L93.7313 119.065C93.6535 119.065 93.6146 118.948 93.6146 118.715C93.6146 118.638 93.6535 118.521 93.7313 118.366C93.8092 118.21 93.8481 118.016 93.8481 117.783L95.4819 111.609L96.7657 109.046C97.466 107.726 98.3996 105.551 99.5667 102.522C100.734 99.4159 101.901 96.1541 103.068 92.7369C105.713 84.5823 107.931 78.5635 109.72 74.6803C110.109 73.9037 110.304 73.0494 110.304 72.1174C110.226 70.3312 109.603 68.6226 108.436 66.9917C107.269 65.3608 106.063 64.5453 104.818 64.5453C104.196 64.5453 103.418 64.8559 102.484 65.4772C101.628 66.0209 101.201 66.6034 101.201 67.2247L99.3333 72.3504C98.7886 73.9813 97.1547 78.4858 94.4316 85.8638L93.3812 88.6596C90.9693 95.4163 89.0631 101.125 87.6626 105.784C87.5848 106.017 87.3125 106.794 86.8457 108.114C85.523 111.298 84.6672 113.9 84.2781 115.919C81.944 123.608 80.7769 128.384 80.7769 130.248C80.7769 131.957 81.3605 133.471 82.5275 134.791ZM151.461 141.548C147.026 141.548 143.447 140.305 140.724 137.82C138.001 135.335 136.639 131.801 136.639 127.219C136.639 125.433 136.756 123.453 136.989 121.278C137.145 119.414 137.884 116.851 139.207 113.589C140.607 110.328 142.474 107.143 144.809 104.037C147.221 100.93 150.021 98.6393 153.211 97.1637C154.69 96.4648 155.935 95.9988 156.946 95.7658C157.958 95.4551 159.125 95.2998 160.447 95.2998C163.637 95.2998 166.205 95.8823 168.15 97.0472C170.173 98.2122 171.573 99.5324 172.351 101.008C173.207 102.484 173.635 103.765 173.635 104.852V105.435V105.784C173.635 106.716 173.09 108.425 172.001 110.91C170.912 113.395 169.161 115.725 166.749 117.9C164.415 120.074 161.381 121.278 157.646 121.511C155.779 121.511 153.951 121.356 152.161 121.045C150.449 120.657 149.36 120.463 148.893 120.463C147.726 120.463 146.987 120.89 146.676 121.744C146.365 122.598 146.209 124.035 146.209 126.054C146.442 128.229 147.026 129.743 147.96 130.598C148.971 131.452 150.411 131.879 152.278 131.879C153.211 131.879 154.301 131.607 155.546 131.064C156.79 130.442 158.269 129.471 159.98 128.151C160.914 127.375 161.653 126.831 162.198 126.52C162.742 126.21 163.404 126.054 164.182 126.054C164.882 126.054 165.699 126.52 166.633 127.452C167.566 128.384 168.072 129.277 168.15 130.132C167.994 131.064 167.138 132.462 165.582 134.325C164.026 136.189 162.003 137.859 159.514 139.335C157.024 140.81 154.34 141.548 151.461 141.548ZM155.546 113.473C157.024 113.473 158.035 113.318 158.58 113.007C159.358 112.619 160.525 111.648 162.081 110.095C163.715 108.464 164.571 107.338 164.649 106.716C164.649 105.94 164.299 105.318 163.598 104.852C162.976 104.309 162.081 103.959 160.914 103.804H159.63C158.619 103.804 157.141 104.658 155.195 106.367C153.328 107.998 151.694 109.9 150.294 112.075C150.372 112.463 150.955 112.813 152.044 113.123C153.134 113.356 154.301 113.473 155.546 113.473ZM178.768 149.819C179.78 151.139 180.791 151.761 181.803 151.683C184.837 150.596 186.354 148.965 186.354 146.79C186.354 146.324 186.315 145.936 186.238 145.625C185.693 143.606 185.421 140.577 185.421 136.539C185.421 132.034 185.849 128.112 186.704 124.773C187.171 122.055 187.871 119.142 188.805 116.036C189.817 112.929 190.556 111.26 191.022 111.027C191.334 110.716 192.112 110.561 193.357 110.561C194.446 110.561 195.341 110.599 196.041 110.677C201.098 110.444 204.599 110.095 206.544 109.629C208.49 109.085 209.462 108.231 209.462 107.066C209.462 106.755 209.306 106.211 208.995 105.435C208.451 104.115 207.75 103.105 206.895 102.406C206.117 101.707 204.911 101.358 203.277 101.358C202.421 101.358 201.759 101.396 201.293 101.474C198.103 102.095 196.196 102.367 195.574 102.289L193.707 102.056L194.64 99.2606C196.819 93.8242 198.531 89.7857 199.775 87.1452C201.176 84.8153 202.965 82.2136 205.144 79.3401C207.4 76.4666 208.723 75.0686 209.112 75.1463V74.6803C209.112 74.1367 209.462 73.6319 210.162 73.1659C210.94 72.6222 211.68 72.3892 212.38 72.4669C213.158 72.4669 213.547 72.9329 213.547 73.8648C213.547 74.7191 213.197 76.5054 212.496 79.2236C212.496 79.9226 212.302 80.6992 211.913 81.5535C211.602 82.3301 211.446 82.7961 211.446 82.9514C211.368 83.728 211.213 84.5435 210.979 85.3978C210.824 86.1744 210.707 86.8345 210.629 87.3782C210.396 87.6888 210.435 87.9995 210.746 88.3102C211.135 88.6208 211.68 88.7761 212.38 88.7761C213.858 88.7761 215.453 88.116 217.165 86.7957C217.943 85.7084 218.876 84.0775 219.966 81.903C221.055 79.7284 221.794 77.8645 222.183 76.3112C222.728 75.1463 223 73.9425 223 72.6999C223 71.302 222.378 69.8652 221.133 68.3896C219.888 66.914 218.371 65.7102 216.581 64.7783C214.792 63.7687 213.158 63.2639 211.68 63.2639C210.512 63.2639 209.345 63.4968 208.178 63.9628C206.389 64.6618 204.133 66.2927 201.409 68.8556C198.764 71.3408 196.624 73.7484 194.991 76.0782C194.446 77.1655 193.862 78.2528 193.24 79.3401C192.617 80.3497 192.306 80.9322 192.306 81.0875C192.306 81.7865 192.151 82.1359 191.839 82.1359H191.606C190.984 82.6796 189.155 86.4462 186.121 93.4359C183.086 100.426 181.025 105.862 179.935 109.745C176.745 120.851 175.15 129.161 175.15 134.675C175.15 135.918 175.189 136.849 175.267 137.471C175.267 139.956 175.578 142.286 176.201 144.46C176.901 146.713 177.757 148.499 178.768 149.819Z" fill="black"/>
<path fill-rule="evenodd" clip-rule="evenodd" d="M68.8194 48.5779C69.2665 48.5779 69.629 48.9733 69.629 49.4611C69.629 52.9686 70.6984 62.5887 71.241 67.0084C71.3004 67.4919 70.9892 67.9363 70.5461 68.0011C70.1029 68.0658 69.6955 67.7264 69.6361 67.2429C69.0993 62.8696 68.0098 53.1137 68.0098 49.4611C68.0098 48.9733 68.3722 48.5779 68.8194 48.5779Z" fill="black"/>
<path fill-rule="evenodd" clip-rule="evenodd" d="M16.2561 14.5255C26.8878 11.3242 41.8405 12.9181 59.9126 21.0504C61.2295 21.643 58.9153 21.4149 58.2934 22.6697C57.6714 23.9244 56.3718 24.8815 55.0548 24.2889C37.6478 16.4559 26.7386 16.6393 17.8454 19.3172C9.14194 21.9378 4.81855 28.0686 5.31241 35.561C5.8558 43.8046 9.26037 50.4474 14.1247 53.8696C18.7888 57.1511 25.3264 57.8421 33.3342 53.2045C34.5788 52.4837 33.248 53.8691 34.0045 55.0549C34.7609 56.2407 37.3181 56.7779 36.0736 57.4987C26.5722 63.0013 17.6741 62.6135 10.9918 57.9122C4.50975 53.3518 0.657223 45.1079 0.0486906 35.8759C-0.609365 25.8927 5.4345 17.784 16.2561 14.5255Z" fill="black"/>
<path d="M34.0482 48.5845C35.0504 48.5028 35.9342 49.1902 36.0222 50.1198C36.4118 54.235 37.0439 59.9608 37.6724 65.0379C38.3075 70.1689 38.9224 74.4943 39.2702 75.9072C39.2788 75.9142 39.2946 75.9261 39.3202 75.9407C39.4526 76.0162 39.7579 76.1279 40.3358 76.1818C41.4971 76.29 43.2125 76.1193 45.3342 75.6694C49.5315 74.7793 54.7339 72.9265 58.9822 70.957C59.5199 70.7077 60.0346 70.4677 60.5287 70.2374L60.5296 70.2369L60.5297 70.2369C63.9207 68.6558 66.3368 67.5293 68.5288 66.9711C71.2358 66.2818 73.5772 66.4469 76.9105 67.2271C78.8922 67.6909 80.9153 67.9856 82.8286 68.2643L82.8287 68.2643C83.9527 68.428 85.0389 68.5862 86.0566 68.7699C86.7065 68.8873 87.3291 69.0173 87.877 69.1701C88.3996 69.3159 88.978 69.5152 89.4622 69.816C89.9325 70.1081 90.6491 70.7166 90.6782 71.7205C90.7049 72.643 90.6791 72.8668 90.6791 72.8668C89.0598 72.8668 89.4622 72.5444 87.2017 72.396C87.038 72.3631 85.5449 72.1203 85.3605 72.087C84.5957 71.9489 83.6359 71.8076 82.5763 71.6516L82.5762 71.6516C80.534 71.3509 78.121 70.9957 76.0191 70.5037C73.0137 69.8003 71.3642 69.7535 69.4933 70.2299C67.6758 70.6926 65.6319 71.644 62.1331 73.2724L62.1296 73.274C61.6516 73.4965 61.1465 73.7316 60.6111 73.9798C56.1732 76.0372 50.6938 77.9993 46.1462 78.9637C43.8955 79.441 41.7226 79.7074 39.9714 79.5441C38.3067 79.3889 36.2273 78.7274 35.7182 76.6594C35.3148 75.0204 34.6776 70.4708 34.0528 65.4234C33.4214 60.3221 32.7858 54.5659 32.3928 50.4154C32.3048 49.4859 33.0459 48.6661 34.0482 48.5845Z" fill="black"/>
<path fill-rule="evenodd" clip-rule="evenodd" d="M91.5943 5.8283C84.4499 4.22972 76.2472 6.59967 70.3398 14.9163C60.9936 28.074 47.5474 28.5775 35.0257 28.5775C33.5675 28.5775 29.147 25.7691 29.147 24.2889C29.147 22.8087 33.5675 23.2173 35.0257 23.2173C47.6694 23.2173 58.4264 22.5233 66.0567 11.7812C73.1896 1.73948 83.5178 -1.46777 92.7309 0.593692C101.858 2.63588 109.759 9.82928 112.176 20.166C114.801 31.3963 112.885 39.0097 107.76 44.0183C102.897 48.7711 95.6423 50.615 89.0082 51.7769C87.5713 52.0285 86.2055 51.05 85.9576 49.5914C85.7097 48.1328 86.6736 46.7463 88.1105 46.4946C94.7454 45.3327 100.508 43.666 104.098 40.1569C107.427 36.9034 109.399 31.5034 107.038 21.4039C105.108 13.15 98.8248 7.44615 91.5943 5.8283Z" fill="black"/>
<path fill-rule="evenodd" clip-rule="evenodd" d="M68.658 36.0297C67.0715 35.8 66.1179 36.0558 65.4998 36.6407C63.3974 38.6299 59.9067 40.5415 56.5786 42.0918C53.1967 43.6671 49.768 44.9658 47.6271 45.6854C46.7122 45.9929 44.0195 44.6543 43.7184 43.7199C43.4174 42.7854 45.6221 42.609 46.5369 42.3015C48.5736 41.6169 51.8813 40.3645 55.1315 38.8505C58.4354 37.3115 61.4723 35.5954 63.1298 34.0272C64.8616 32.3886 67.0972 32.2057 69.1475 32.5025C71.1895 32.7982 73.405 33.6191 75.4634 34.4336C75.8714 34.5951 76.2737 34.7564 76.6703 34.9155C78.3505 35.5894 79.928 36.2221 81.4053 36.6474C83.2708 37.1846 84.57 37.2594 85.4206 36.9392C85.925 36.7493 86.5248 36.6142 87.1558 36.7081C87.846 36.8107 88.4285 37.167 88.843 37.6979C89.2206 38.1816 89.403 38.7359 89.5004 39.2059C89.6002 39.6875 89.6352 40.2027 89.6382 40.7097C89.6474 42.251 89.3453 44.3857 89.0256 46.6444C88.9453 47.2117 88.8639 47.7868 88.7861 48.3623C88.3823 51.3472 88.0325 54.5649 88.1745 57.581C88.3172 60.6106 88.9493 63.2361 90.3398 65.1748C90.9089 65.9684 90.7405 67.083 89.9636 67.6643C89.1867 68.2457 88.0955 68.0737 87.5264 67.2801C85.5597 64.538 84.849 61.1076 84.691 57.7522C84.5323 54.3834 84.9238 50.8871 85.3313 47.8747C85.4225 47.201 85.5127 46.5601 85.5982 45.9533C85.9101 43.7399 86.1582 41.9789 86.1507 40.7314C86.1501 40.6249 86.1474 40.528 86.1432 40.4403C84.3169 40.9538 82.2908 40.6037 80.459 40.0762C78.7973 39.5977 77.0138 38.8817 75.3245 38.2034C74.9453 38.0512 74.5709 37.9008 74.2036 37.7555C72.1217 36.9317 70.2527 36.2606 68.658 36.0297Z" fill="black"/>
</svg>
