<svg width="16" height="16" viewBox="0 0 16 16" fill="none" xmlns="http://www.w3.org/2000/svg">
<path d="M2 8H8V9H2V8Z" fill="#219653"/>
<path d="M1 5.5H6V6.5H1V5.5Z" fill="#219653"/>
<path d="M14.9595 8.303L13.4595 4.803C13.4211 4.71304 13.357 4.63637 13.2753 4.5825C13.1936 4.52863 13.0979 4.49995 13 4.5H11.5V3.5C11.5 3.36739 11.4474 3.24021 11.3536 3.14645C11.2598 3.05268 11.1327 3 11 3H3.00005V4H10.5V10.278C10.2722 10.4103 10.0728 10.5864 9.91338 10.7961C9.75393 11.0059 9.63758 11.2451 9.57105 11.5H6.42905C6.30735 11.0287 6.01793 10.6179 5.61504 10.3447C5.21215 10.0715 4.72345 9.9546 4.24055 10.0159C3.75764 10.0773 3.31368 10.3126 2.99188 10.6779C2.67009 11.0431 2.49255 11.5132 2.49255 12C2.49255 12.4868 2.67009 12.9569 2.99188 13.3221C3.31368 13.6874 3.75764 13.9227 4.24055 13.9841C4.72345 14.0454 5.21215 13.9285 5.61504 13.6553C6.01793 13.3821 6.30735 12.9713 6.42905 12.5H9.57105C9.67981 12.9291 9.92856 13.3097 10.2779 13.5816C10.6273 13.8535 11.0574 14.0011 11.5 14.0011C11.9427 14.0011 12.3728 13.8535 12.7222 13.5816C13.0715 13.3097 13.3203 12.9291 13.429 12.5H14.5C14.6327 12.5 14.7598 12.4473 14.8536 12.3536C14.9474 12.2598 15 12.1326 15 12V8.5C15.0001 8.43226 14.9863 8.36523 14.9595 8.303ZM4.50005 13C4.30226 13 4.10892 12.9414 3.94448 12.8315C3.78003 12.7216 3.65185 12.5654 3.57617 12.3827C3.50048 12.2 3.48067 11.9989 3.51926 11.8049C3.55785 11.6109 3.65309 11.4327 3.79294 11.2929C3.93279 11.153 4.11097 11.0578 4.30496 11.0192C4.49894 10.9806 4.7 11.0004 4.88273 11.0761C5.06545 11.1518 5.22163 11.28 5.33151 11.4444C5.4414 11.6089 5.50005 11.8022 5.50005 12C5.49978 12.2651 5.39434 12.5193 5.20686 12.7068C5.01938 12.8943 4.76518 12.9997 4.50005 13ZM11.5 5.5H12.67L13.742 8H11.5V5.5ZM11.5 13C11.3023 13 11.1089 12.9414 10.9445 12.8315C10.78 12.7216 10.6519 12.5654 10.5762 12.3827C10.5005 12.2 10.4807 11.9989 10.5193 11.8049C10.5578 11.6109 10.6531 11.4327 10.7929 11.2929C10.9328 11.153 11.111 11.0578 11.305 11.0192C11.4989 10.9806 11.7 11.0004 11.8827 11.0761C12.0655 11.1518 12.2216 11.28 12.3315 11.4444C12.4414 11.6089 12.5 11.8022 12.5 12C12.4998 12.2651 12.3943 12.5193 12.2069 12.7068C12.0194 12.8943 11.7652 12.9997 11.5 13ZM14 11.5H13.429C13.3189 11.0717 13.0698 10.6921 12.7207 10.4206C12.3716 10.1492 11.9423 10.0012 11.5 10V9H14V11.5Z" fill="#219653"/>
</svg>
