<svg width="20" height="20" viewBox="0 0 20 20" fill="none" xmlns="http://www.w3.org/2000/svg">
<path d="M14.7875 6.33294H5.20412C4.83745 6.33294 4.53745 6.63294 4.53745 6.99961L4.43745 15.4996C4.43745 15.6829 4.50413 15.8496 4.63747 15.9829C4.7708 16.1163 4.93745 16.183 5.10412 16.183H14.8375C15.0208 16.183 15.1875 16.1163 15.3041 15.9829C15.4208 15.8496 15.5041 15.683 15.5041 15.5163L15.4375 7.01629C15.4541 6.63296 15.1541 6.33294 14.7875 6.33294ZM10.0041 14.8329H5.78745L5.87078 7.66628H14.1208L14.1708 14.8329H10.0041ZM12.1375 9.49961C12.1375 9.86628 11.8375 10.1663 11.4708 10.1663H8.55413C8.18747 10.1663 7.88747 9.86628 7.88747 9.49961C7.88747 9.13294 8.18747 8.83294 8.55413 8.83294H11.4708C11.8375 8.83294 12.1375 9.13294 12.1375 9.49961ZM17.1375 6.81626C17.0875 6.81626 17.0541 6.83294 17.0041 6.83294C16.6875 6.83294 16.4041 6.61628 16.3541 6.29962L16.1375 5.16628H3.88747L3.67079 6.29962C3.60412 6.66628 3.25413 6.89961 2.88747 6.83294C2.5208 6.76628 2.28745 6.41628 2.35412 6.04962L2.67079 4.38295C2.73746 4.06628 3.00413 3.84963 3.3208 3.84963H16.6708C16.9875 3.84963 17.2708 4.08295 17.3208 4.38295L17.6375 6.04962C17.7208 6.39962 17.4875 6.74959 17.1375 6.81626Z" fill="#333333"/>
</svg>
