<svg width="24" height="24" viewBox="0 0 24 24" fill="none" xmlns="http://www.w3.org/2000/svg">
<path d="M10.8049 13.9002C10.8049 13.5202 10.4849 13.2002 10.1049 13.2002H7.50491C7.12491 13.2002 6.80491 13.5202 6.80491 13.9002V16.5002C6.80491 16.8802 7.12491 17.2002 7.50491 17.2002H10.1049C10.4849 17.2002 10.8049 16.8802 10.8049 16.5002V13.9002ZM8.20491 14.6002H9.40491V15.8002H8.20491V14.6002ZM20.9849 7.88018L19.2049 6.08018V4.0002C19.2049 3.5602 18.8449 3.2002 18.3849 3.2002H5.60491C5.16491 3.2002 4.78492 3.5602 4.78492 4.0002V6.08018L3.00491 7.88018C2.86491 8.02018 2.78492 8.24023 2.78492 8.44023V10.4802C2.78492 10.9202 3.14492 11.2202 3.58492 11.2202H20.3849C20.8249 11.2202 21.1849 10.9402 21.1849 10.4802V8.44023C21.2049 8.22023 21.1249 8.02018 20.9849 7.88018ZM17.6049 4.8002V5.8002H6.40491V4.8002H17.6049ZM19.6049 9.60019H4.40491V8.76016L6.04491 7.2002H17.9649L19.6049 8.76016V9.60019ZM20.0049 12.8202V20.0002C20.0049 20.4402 19.6449 20.8002 19.2049 20.8002H16.4649C16.0249 20.8002 15.6649 20.4802 15.6649 20.0402V15.8002H13.8049V20.0002C13.8049 20.4402 13.4249 20.8002 12.9849 20.8002H4.80491C4.36491 20.8002 3.98492 20.4402 3.98492 20.0002V12.8202C3.98492 12.3802 4.34492 12.0202 4.78492 12.0202C5.22492 12.0202 5.58492 12.3802 5.58492 12.8202V19.2002H12.1849V14.9202C12.1849 14.4802 12.5249 14.2002 12.9649 14.2002H16.4249C16.8649 14.2002 17.1649 14.4802 17.1649 14.9202V19.2002H18.3649V12.8202C18.3649 12.3802 18.7249 12.0202 19.1649 12.0202C19.6049 12.0202 20.0049 12.3802 20.0049 12.8202Z" fill="#587B67"/>
</svg>
