<svg width="117" height="111" viewBox="0 0 117 111" fill="none" xmlns="http://www.w3.org/2000/svg">
<path d="M38.8774 110.076C38.1703 109.641 37.64 109.179 37.2864 108.69C36.9329 108.228 36.7561 107.78 36.7561 107.345C36.7561 106.774 37.0417 106.312 37.6128 105.959C37.7216 105.905 37.8711 105.878 38.0615 105.878C38.3335 105.878 38.619 105.932 38.9182 106.041C39.2445 106.122 39.4893 106.244 39.6524 106.407C40.3595 107.06 41.2026 107.386 42.1816 107.386C42.6167 107.386 43.2422 107.291 44.0581 107.1C45.1187 106.774 45.9482 106.367 46.5465 105.878C47.172 105.388 47.9062 104.628 48.7493 103.595C49.266 102.916 49.6468 102.236 49.8915 101.557C50.1635 100.85 50.2994 100.212 50.2994 99.6409C50.2994 99.0159 50.1499 98.5268 49.8507 98.1735C49.3068 97.4398 48.6949 96.8963 48.015 96.543C47.3623 96.1626 46.5873 95.9723 45.6898 95.9723C44.9011 95.9723 44.1261 96.081 43.3646 96.2984L40.9986 96.7876C40.8898 96.8148 40.7402 96.8419 40.5499 96.8691C40.3867 96.8691 40.142 97.2631 39.8156 98.0512C39.4893 98.8393 38.9318 100.334 38.1431 102.535C37.572 104.138 37.0961 105.293 36.7153 106C36.3346 106.679 35.9946 107.019 35.6955 107.019C35.3692 107.019 35.0156 106.72 34.6349 106.122C34.5533 105.986 34.3765 105.715 34.1046 105.307C33.8598 104.899 33.7374 104.505 33.7374 104.125C33.7374 103.935 33.8054 103.704 33.9414 103.432C34.0774 103.187 34.1862 102.943 34.2677 102.698C34.3765 102.454 34.4853 102.114 34.5941 101.679C34.9476 100.619 35.9675 97.9833 37.6536 93.7712C39.3669 89.5591 40.6995 86.3796 41.6513 84.2328C42.3312 82.6839 42.5351 81.8686 42.2632 81.7871C42.2632 81.7056 42.2224 81.5833 42.1408 81.4202C42.0592 81.2572 42.032 81.1349 42.0592 81.0534C42.0592 80.8903 42.5351 80.6458 43.487 80.3197C44.466 79.9936 45.1323 79.8577 45.4859 79.912H45.7306C46.0842 79.912 46.2609 79.8441 46.2609 79.7082C46.3153 79.7082 46.5601 79.681 46.9952 79.6267C47.4575 79.5723 47.947 79.5723 48.4638 79.6267C50.3946 79.7897 51.9176 80.3468 53.0326 81.298C54.1476 82.2219 54.6915 83.5942 54.6643 85.4149C54.6099 86.1215 54.2156 87.0862 53.4813 88.309C52.747 89.5319 51.9448 90.5374 51.0745 91.3254C50.6394 91.7059 50.1363 92.1135 49.5652 92.5483C49.0213 92.9559 48.6677 93.2141 48.5045 93.3228L49.5244 93.6897C50.8026 94.1788 51.7952 94.7766 52.5023 95.4832C53.2094 96.1897 53.7125 97.1544 54.0116 98.3773C54.066 98.6491 54.0932 98.8936 54.0932 99.111C54.0932 99.7089 53.9844 100.388 53.7669 101.149C53.5765 101.91 53.3589 102.576 53.1142 103.146C52.951 103.31 52.815 103.486 52.7062 103.676C52.5975 103.867 52.5295 103.989 52.5023 104.043C52.4751 104.152 52.2303 104.573 51.768 105.307C51.3057 106.013 50.8977 106.584 50.5442 107.019C48.7493 108.541 47.2672 109.519 46.0977 109.954C44.9555 110.47 43.5958 110.728 42.0184 110.728C40.6043 110.728 39.5572 110.511 38.8774 110.076ZM41.8145 93.1597C42.0864 93.1054 42.6303 92.9967 43.4462 92.8337C44.2621 92.6434 44.8468 92.4804 45.2003 92.3445C45.2547 92.3173 45.4179 92.2358 45.6898 92.0999C45.989 91.9369 46.2881 91.7059 46.5873 91.407C48.3006 89.8037 49.4972 88.3634 50.1771 87.0862C50.8569 85.972 51.1969 85.1839 51.1969 84.722C51.1969 84.3959 51.0473 84.0834 50.7482 83.7844C50.2315 83.1866 49.3748 82.8877 48.1782 82.8877C47.6615 82.8877 47.2264 82.942 46.8728 83.0507C46.4921 83.1594 46.2065 83.2953 46.0162 83.4583C45.853 83.5942 45.7714 83.8116 45.7714 84.1105C45.7714 84.3279 45.7034 84.5725 45.5674 84.8443C45.4315 85.0888 45.2819 85.2926 45.1187 85.4557C45.0915 85.6187 45.0099 85.7818 44.874 85.9448C44.7652 86.1079 44.6836 86.2166 44.6292 86.2709C44.6292 86.3253 44.4388 86.6921 44.0581 87.3715C43.7046 88.0509 43.3646 88.8118 43.0383 89.6542C42.2224 91.5836 41.8145 92.7521 41.8145 93.1597Z" fill="white"/>
<path d="M59.5773 108.568C58.5167 107.78 57.7008 107.073 57.1297 106.448C56.5586 105.823 56.2595 105.225 56.2323 104.655C56.2051 104.519 56.1915 104.274 56.1915 103.921C56.1915 103.16 56.2595 102.209 56.3955 101.068C56.5314 99.9263 56.6674 99.0159 56.8034 98.3365C56.9122 98.2278 56.9666 98.0648 56.9666 97.8474C56.9938 97.63 56.9938 97.4941 56.9666 97.4398C56.9666 97.3583 57.0346 97.0865 57.1705 96.6245C57.4969 95.6191 57.728 94.7766 57.864 94.0973C58.5983 91.8689 59.319 90.089 60.0261 88.7574C60.7331 87.4259 61.5218 86.1758 62.3921 85.0073C64.2414 83.1051 66.213 81.6648 68.3071 80.6865C69.3677 80.0615 70.1292 79.749 70.5915 79.749C70.6731 79.749 70.7954 79.7762 70.9586 79.8305C74.3037 80.5642 76.3025 82.6839 76.9552 86.1894C77.2 87.8471 77.3223 89.0971 77.3223 89.9395C77.3223 91.2983 77.0776 92.6706 76.5881 94.0565C76.0986 95.4424 75.2147 97.1816 73.9365 99.2741C72.8487 101.448 71.6113 103.31 70.2243 104.858C68.8646 106.38 67.4912 107.522 66.1042 108.283C64.7445 109.043 63.4663 109.424 62.2697 109.424C61.2091 109.424 60.3116 109.139 59.5773 108.568ZM62.8408 105.878C63.4935 105.796 63.9966 105.674 64.3501 105.511C64.7309 105.348 65.1116 105.076 65.4923 104.695C65.9003 104.288 66.553 103.568 67.4504 102.535C68.5926 101.231 69.3949 100.28 69.8572 99.6817C70.3195 99.0567 70.7411 98.2822 71.1218 97.3583C71.5297 96.4343 71.9784 95.1027 72.468 93.3636L72.7127 92.426C72.8759 91.8554 72.9847 91.3934 73.0391 91.0401C73.1207 90.6597 73.1614 90.252 73.1614 89.8172L73.1207 87.2492C73.0935 86.7601 72.9983 86.2302 72.8351 85.6595C72.6719 85.0888 72.4816 84.6812 72.264 84.4366C72.0464 84.1921 71.7473 83.9883 71.3666 83.8252C71.013 83.635 70.6459 83.5399 70.2651 83.5399C69.9932 83.5399 69.6804 83.6078 69.3269 83.7437C68.8102 83.9611 68.0895 84.5453 67.1649 85.4965C66.2402 86.4204 65.4108 87.3715 64.6765 88.3498C63.9694 89.3281 63.6159 89.9803 63.6159 90.3064C63.6159 90.3336 63.6023 90.4151 63.5751 90.551C63.5479 90.6868 63.4935 90.8091 63.4119 90.9178C62.7048 91.6787 61.9841 93.282 61.2499 95.7278C60.5428 98.1735 60.1348 100.307 60.0261 102.127C59.9989 102.916 59.9989 103.459 60.0261 103.758C60.0804 104.057 60.23 104.397 60.4748 104.777C60.6651 105.076 61.0051 105.361 61.4946 105.633C62.0113 105.878 62.46 105.959 62.8408 105.878Z" fill="white"/>
<path d="M92.9302 110.158C93.039 110.049 92.903 109.859 92.5223 109.587C92.1415 109.342 91.8968 109.274 91.788 109.383C91.7064 109.383 91.6384 109.342 91.584 109.261C91.5568 109.206 91.5296 109.125 91.5024 109.016C91.4752 108.908 91.4344 108.799 91.38 108.69C91.4344 108.636 91.4616 108.554 91.4616 108.446C91.4616 108.283 91.3664 108.011 91.1761 107.63C91.1761 107.359 91.0809 107.046 90.8905 106.693C90.7002 106.312 90.5914 106.095 90.5642 106.041C90.5642 105.878 90.537 105.701 90.4826 105.511C90.4282 105.32 90.3874 105.198 90.3602 105.144C90.3602 104.926 90.2242 104.546 89.9523 104.002C89.8435 103.758 89.7483 103.527 89.6667 103.31C89.6123 103.065 89.5716 102.902 89.5444 102.82C89.0276 101.57 88.6061 100.524 88.2798 99.6817C88.1438 99.3556 88.0078 99.0567 87.8718 98.7849C87.7631 98.5132 87.6815 98.3365 87.6271 98.255C87.5727 98.1191 87.4503 97.8882 87.2599 97.5621C87.0968 97.236 87.0152 96.9778 87.0152 96.7876C87.0152 96.38 86.9472 96.1761 86.8112 96.1761C86.784 96.1218 86.7296 96.0403 86.648 95.9316C86.5937 95.7957 86.5121 95.6734 86.4033 95.5647L86.1993 94.7495L85.873 95.524C85.737 95.6055 85.6146 95.8229 85.5058 96.1761C85.3971 96.5022 85.2747 96.7332 85.1387 96.8691C83.0718 99.8855 81.8888 101.462 81.5897 101.598C81.6441 101.598 81.6713 101.625 81.6713 101.679C81.6713 101.842 81.5081 102.087 81.1818 102.413C80.8282 102.902 80.5427 103.391 80.3251 103.88C80.2979 103.989 80.2163 104.288 80.0803 104.777C79.9444 105.239 79.5908 105.878 79.0197 106.693C78.8294 107.128 78.503 107.454 78.0407 107.671C77.6056 107.888 77.2384 107.997 76.9393 107.997C76.6401 107.888 76.3682 107.549 76.1234 106.978C75.9058 106.407 75.7971 105.823 75.7971 105.225C75.7971 104.818 75.8515 104.505 75.9602 104.288C76.3682 103.581 76.9665 102.576 77.7551 101.271C78.571 99.967 79.0741 99.2197 79.2645 99.0295C79.3189 98.948 79.4277 98.7985 79.5908 98.5811C79.754 98.3637 79.9308 98.1735 80.1211 98.0105C80.5291 97.4398 80.8554 96.9642 81.1002 96.5838C81.3449 96.1762 81.6305 95.687 81.9568 95.1163C82.0656 95.0076 82.1744 94.8853 82.2832 94.7495C82.392 94.6136 82.5279 94.4641 82.6911 94.3011C82.9359 93.975 83.167 93.7032 83.3846 93.4858C83.5206 93.2956 83.7245 93.1462 83.9965 93.0375C84.2684 92.9016 84.4452 92.725 84.5268 92.5076C84.6628 92.3445 84.758 92.195 84.8124 92.0592C84.8939 91.9233 84.9347 91.7195 84.9347 91.4477C84.9347 91.2303 84.418 90.0211 83.3846 87.8199C82.3784 85.6187 81.6849 84.2464 81.3041 83.7029C80.9778 83.1322 80.8146 82.5752 80.8146 82.0317C80.8146 81.2979 81.141 80.8224 81.7937 80.605C81.848 80.5778 81.9704 80.5642 82.1608 80.5642C82.5687 80.5642 83.0175 80.6729 83.507 80.8903C83.9965 81.0806 84.2956 81.3115 84.4044 81.5833C84.622 81.5833 84.9755 82.1811 85.465 83.3768C85.601 83.7573 85.8594 84.4095 86.2401 85.3334L86.8928 86.9231L87.6679 88.8797L88.8101 87.2085C89.9251 85.9313 90.673 85.1568 91.0537 84.885C91.2713 84.7491 91.448 84.6269 91.584 84.5182C91.72 84.3823 91.8152 84.2872 91.8696 84.2328C91.8696 84.0154 92.3183 83.5535 93.2157 82.8469C94.1132 82.1404 94.7115 81.7871 95.0106 81.7871C95.337 81.7871 95.7041 82.0045 96.1121 82.4393C96.52 82.8469 96.7783 83.2953 96.8871 83.7844C96.8871 84.4366 96.4928 84.9937 95.7041 85.4557C94.6979 86.2438 93.9092 86.9095 93.3381 87.453C92.7942 87.9965 91.924 88.9477 90.7274 90.3064L88.8101 92.0592L89.0548 92.7114L89.3812 93.4858C89.49 93.6761 89.5987 93.9071 89.7075 94.1788C89.8163 94.4234 89.9251 94.6408 90.0339 94.831C90.2242 95.2658 90.4554 95.7278 90.7274 96.2169C91.1897 97.1952 91.5704 98.1463 91.8696 99.0703C92.5495 100.646 92.8894 101.53 92.8894 101.72L94.154 105.022C94.6707 106.163 94.9291 107.141 94.9291 107.956C94.9291 108.5 94.8067 108.935 94.5619 109.261C94.3172 109.614 93.9772 109.913 93.5421 110.158H92.9302Z" fill="white"/>
<path fill-rule="evenodd" clip-rule="evenodd" d="M25.0191 39.671C25.7955 39.3797 26.6807 39.0206 27.6917 38.582C35.6842 35.1144 37.3358 34.7676 41.6141 35.6923C42.4732 35.878 43.2183 36.0481 43.8585 36.2013C44.0342 36.7753 44.1221 37.4633 44.1221 38.2654C44.1221 40.2212 43.6526 42.3401 42.7137 44.6219C41.7748 46.9037 40.6523 48.6355 39.346 49.8171C39.0603 50.1023 38.6725 50.245 38.1826 50.245C37.6927 50.245 37.1621 50.1023 36.5906 49.8171C36.0191 49.5319 35.5088 49.1855 35.0598 48.7781C34.6924 48.0854 34.4883 47.6779 34.4475 47.5557C34.4067 47.4334 34.4883 47.3519 34.6924 47.3112C35.0598 46.863 35.5905 46.0073 36.2844 44.7441C37.0192 43.4402 37.5091 42.4216 37.754 41.6881L38.1214 39.9767C38.3663 38.9173 38.4888 38.2246 38.4888 37.8986C38.4888 37.5319 38.3459 37.206 38.0601 36.9207C37.9377 36.7985 37.7744 36.7374 37.5703 36.7374C37.2437 36.7374 36.6722 36.9411 35.8558 37.3486C34.9169 37.756 33.7943 38.5913 32.4881 39.8545C31.2226 41.0769 29.9572 42.5438 28.6917 44.2552C26.8139 46.7 25.3648 48.7169 24.3443 50.3061C23.3646 51.8952 22.6094 53.5047 22.0787 55.1346L21.4052 56.7237C21.446 56.8867 21.3847 57.2942 21.2215 57.9461C21.0582 58.5981 20.8745 59.1278 20.6704 59.5352C20.0989 61.8986 19.8131 64.0378 19.8131 65.9529C19.8131 67.4605 19.956 68.7644 20.2418 69.8646C20.5683 70.9647 21.0174 71.7797 21.5889 72.3094C21.9154 72.5946 22.3849 72.7372 22.9972 72.7372C23.6503 72.7372 24.3851 72.5946 25.2015 72.3094C26.0588 71.9834 26.9568 71.6167 27.8957 71.2092C28.8346 70.8018 29.4877 70.5165 29.8551 70.3535C30.794 69.9868 31.6716 69.559 32.4881 69.07C33.3453 68.5811 33.978 68.1328 34.3862 67.7254C35.4476 66.9512 36.3048 66.5641 36.958 66.5641C37.4886 66.4011 37.8969 66.5641 38.1826 67.053C38.5092 67.542 38.6725 68.2143 38.6725 69.07C38.6725 69.6405 38.2847 70.3332 37.5091 71.1481C36.7335 71.9223 35.815 72.615 34.7536 73.2262C34.3046 73.6744 33.3045 74.2041 31.7533 74.8153C30.447 75.7525 28.9162 76.5878 27.1609 77.3213C25.4464 78.0547 23.8748 78.4214 22.4461 78.4214C22.1195 78.4214 21.7113 78.3807 21.2215 78.2992C19.956 77.851 18.7314 77.199 17.5476 76.3433C16.4046 75.4876 15.5678 74.4079 15.0371 73.104C14.3839 71.2703 14.0574 69.1108 14.0574 66.6252C14.0574 64.2211 14.2002 62.1838 14.486 60.5132C14.7717 58.8018 15.2616 57.0701 15.9556 55.3179L16.5066 54.0344C17.1598 52.3638 17.6292 51.2636 17.915 50.7339C18.6089 49.1448 19.8335 47.0871 21.5889 44.5608C22.9865 42.4681 24.1299 40.8382 25.0191 39.671ZM43.2993 70.7203C43.9116 71.413 44.5851 71.8204 45.3199 71.9427C46.5037 71.9427 47.7488 70.9851 49.055 69.07C51.1369 66.7067 53.1779 64.7916 55.1782 63.3247C57.2192 61.8171 58.648 61.0633 59.4644 61.0633C59.7093 61.0633 59.8726 61.1651 59.9542 61.3689C60.0767 61.5318 60.1379 61.8782 60.1379 62.4079C60.1379 62.8969 60.0767 63.5488 59.9542 64.3638C59.9134 64.7305 59.8726 65.1583 59.8318 65.6473C59.791 66.1362 59.7705 66.6252 59.7705 67.1142C59.7705 68.3366 60.1175 69.3756 60.8115 70.2313C61.5054 71.087 62.4239 71.5148 63.5669 71.5148C64.5058 71.4333 65.4855 71.0462 66.506 70.3535C67.5265 69.6608 68.0368 68.8459 68.0368 67.9087C68.0368 67.7457 67.996 67.6235 67.9143 67.542C67.7511 67.5013 67.5674 67.379 67.3633 67.1753C67.1591 66.9715 66.9142 66.8086 66.6285 66.6863C66.3835 66.5641 65.9549 66.503 65.3426 66.503C64.9344 66.5845 64.6282 66.6252 64.4241 66.6252C64.465 66.3807 64.6691 65.4435 65.0365 63.8137C65.4447 62.143 65.6488 60.7984 65.6488 59.7797V59.3519V58.8629C65.6488 57.9665 65.4243 57.1312 64.9752 56.357C64.567 55.542 64.0567 54.9105 63.4444 54.4623C62.8321 54.014 62.3014 53.7899 61.8524 53.7899C60.342 53.7899 58.9337 54.2585 57.6274 55.1957L57.0151 55.6847C56.7294 55.9291 56.5661 56.1125 56.5253 56.2347C56.4844 56.357 55.7905 56.8867 54.4434 57.8239C52.8106 59.0463 51.4022 60.2483 50.2184 61.43L49.1775 62.469C49.1367 62.469 49.1163 62.4079 49.1163 62.2857C49.1163 62.2449 49.1367 62.1838 49.1775 62.1023C49.2183 62.0208 49.2387 61.9189 49.2387 61.7967L50.096 58.5573L50.7695 57.2127C51.1369 56.52 51.6267 55.3791 52.2391 53.7899C52.8514 52.1601 53.4637 50.4487 54.076 48.6558C55.4639 44.3774 56.6273 41.2195 57.5662 39.1822C57.7703 38.7747 57.8724 38.3265 57.8724 37.8375C57.8315 36.9004 57.505 36.0039 56.8927 35.1482C56.2803 34.2925 55.6476 33.8647 54.9945 33.8647C54.6679 33.8647 54.2597 34.0277 53.7699 34.3537C53.3208 34.6389 53.0963 34.9445 53.0963 35.2705L52.1166 37.9598C51.8309 38.8155 50.9736 41.1788 49.5449 45.0497L48.9938 46.5166C47.7283 50.0616 46.7282 53.0565 45.9934 55.5013C45.9526 55.6235 45.8097 56.031 45.5648 56.7237C44.8709 58.3943 44.4218 59.7594 44.2177 60.8188C42.9931 64.8527 42.3808 67.3586 42.3808 68.3366C42.3808 69.233 42.6869 70.0276 43.2993 70.7203ZM79.466 74.2652C77.1392 74.2652 75.2615 73.6133 73.8327 72.3094C72.404 71.0055 71.6896 69.1515 71.6896 66.7474C71.6896 65.8103 71.7509 64.7712 71.8733 63.6303C71.955 62.6524 72.3428 61.3077 73.0367 59.5964C73.7715 57.885 74.7512 56.2144 75.9758 54.5845C77.2413 52.9546 78.7109 51.7526 80.3845 50.9784C81.1601 50.6117 81.8133 50.3672 82.3439 50.245C82.8746 50.082 83.4869 50.0005 84.1809 50.0005C85.8545 50.0005 87.2016 50.3061 88.2222 50.9173C89.2835 51.5285 90.0183 52.2212 90.4265 52.9954C90.8755 53.7696 91.1 54.4419 91.1 55.0123V55.3179V55.5013C91.1 55.9903 90.8143 56.8867 90.2428 58.1906C89.6713 59.4945 88.7528 60.7169 87.4874 61.8578C86.2627 62.9987 84.6707 63.6303 82.7113 63.7526C81.7316 63.7526 80.7723 63.6711 79.8334 63.5081C78.9354 63.3043 78.3639 63.2025 78.1189 63.2025C77.5066 63.2025 77.1188 63.4266 76.9556 63.8748C76.7923 64.323 76.7106 65.0768 76.7106 66.1362C76.8331 67.2772 77.1392 68.0717 77.6291 68.5199C78.1598 68.9681 78.915 69.1923 79.8947 69.1923C80.3845 69.1923 80.956 69.0496 81.6092 68.7644C82.2623 68.4384 83.0379 67.9291 83.9359 67.2364C84.4258 66.8289 84.8136 66.5437 85.0993 66.3807C85.3851 66.2177 85.7321 66.1362 86.1403 66.1362C86.5077 66.1362 86.9363 66.3807 87.4261 66.8697C87.916 67.3586 88.1813 67.8272 88.2222 68.2755C88.1405 68.7644 87.6915 69.4979 86.8751 70.4758C86.0586 71.4537 84.9973 72.3298 83.691 73.104C82.3848 73.8781 80.9764 74.2652 79.466 74.2652ZM81.6092 59.5352C82.3848 59.5352 82.9154 59.4538 83.2012 59.2908C83.6094 59.087 84.2217 58.5777 85.0381 57.7628C85.8954 56.9071 86.3444 56.3162 86.3852 55.9903C86.3852 55.5828 86.2015 55.2568 85.8341 55.0123C85.5076 54.7271 85.0381 54.5438 84.4258 54.4623H83.7523C83.2216 54.4623 82.446 54.9105 81.4255 55.8069C80.4457 56.6626 79.5885 57.6609 78.8537 58.8018C78.8945 59.0055 79.2007 59.1889 79.7722 59.3519C80.3437 59.4741 80.956 59.5352 81.6092 59.5352ZM93.7933 78.6048C94.3239 79.2975 94.8546 79.6235 95.3853 79.5827C96.9773 79.0123 97.7733 78.1566 97.7733 77.0157C97.7733 76.7712 97.7529 76.5674 97.7121 76.4045C97.4263 75.345 97.2835 73.7559 97.2835 71.6371C97.2835 69.2738 97.508 67.216 97.957 65.4639C98.2019 64.0378 98.5693 62.5098 99.0592 60.8799C99.5899 59.25 99.9777 58.374 100.223 58.2517C100.386 58.0887 100.794 58.0072 101.447 58.0072C102.019 58.0072 102.488 58.0276 102.856 58.0684C105.509 57.9461 107.346 57.7628 108.366 57.5183C109.387 57.233 109.897 56.7848 109.897 56.1736C109.897 56.0106 109.816 55.7254 109.652 55.3179C109.366 54.6252 108.999 54.0955 108.55 53.7288C108.142 53.3621 107.509 53.1787 106.652 53.1787C106.203 53.1787 105.856 53.1991 105.611 53.2399C103.937 53.5658 102.937 53.7084 102.611 53.6677L101.631 53.5455L102.121 52.0786C103.264 49.2263 104.162 47.1074 104.815 45.7221C105.55 44.4996 106.489 43.1346 107.632 41.627C108.815 40.1194 109.509 39.3859 109.713 39.4267V39.1822C109.713 38.8969 109.897 38.6321 110.265 38.3876C110.673 38.1024 111.061 37.9801 111.428 38.0209C111.836 38.0209 112.04 38.2654 112.04 38.7543C112.04 39.2025 111.857 40.1397 111.489 41.5659C111.489 41.9326 111.387 42.3401 111.183 42.7883C111.02 43.1957 110.938 43.4402 110.938 43.5217C110.897 43.9292 110.816 44.357 110.693 44.8052C110.612 45.2127 110.55 45.5591 110.509 45.8443C110.387 46.0073 110.407 46.1703 110.571 46.3333C110.775 46.4962 111.061 46.5777 111.428 46.5777C112.204 46.5777 113.04 46.2314 113.938 45.5387C114.347 44.9682 114.837 44.1125 115.408 42.9716C115.979 41.8307 116.367 40.8528 116.571 40.0379C116.857 39.4267 117 38.7951 117 38.1431C117 37.4097 116.673 36.6559 116.02 35.8817C115.367 35.1075 114.571 34.4759 113.632 33.9869C112.693 33.4572 111.836 33.1924 111.061 33.1924C110.448 33.1924 109.836 33.3146 109.224 33.5591C108.285 33.9258 107.101 34.7815 105.672 36.1262C104.284 37.4301 103.162 38.6932 102.304 39.9156C102.019 40.4861 101.713 41.0565 101.386 41.627C101.059 42.1567 100.896 42.4623 100.896 42.5438C100.896 42.9105 100.814 43.0939 100.651 43.0939H100.529C100.202 43.3791 99.2429 45.3553 97.6508 49.0225C96.0588 52.6898 94.9771 55.5421 94.4056 57.5794C92.7319 63.4062 91.8951 67.7661 91.8951 70.6591C91.8951 71.3111 91.9155 71.8001 91.9563 72.126C91.9563 73.4299 92.1196 74.6523 92.4462 75.7933C92.8136 76.9749 93.2626 77.9121 93.7933 78.6048Z" fill="white"/>
<path fill-rule="evenodd" clip-rule="evenodd" d="M36.1069 25.4868C36.3415 25.4868 36.5317 25.6943 36.5317 25.9502C36.5317 27.7905 37.0928 32.8378 37.3775 35.1566C37.4086 35.4103 37.2453 35.6435 37.0128 35.6775C36.7803 35.7114 36.5666 35.5333 36.5354 35.2797C36.2537 32.9851 35.6821 27.8666 35.6821 25.9502C35.6821 25.6943 35.8723 25.4868 36.1069 25.4868Z" fill="white"/>
<path fill-rule="evenodd" clip-rule="evenodd" d="M8.52898 7.62126C14.1071 5.94166 21.9522 6.7779 31.434 11.0446C32.1249 11.3555 30.9107 11.2359 30.5844 11.8942C30.2581 12.5525 29.5762 13.0547 28.8853 12.7438C19.7524 8.63403 14.0288 8.73029 9.3628 10.1353C4.79644 11.5102 2.52812 14.7268 2.78723 18.6578C3.07232 22.9829 4.85858 26.4681 7.4107 28.2637C9.85779 29.9853 13.2878 30.3479 17.4892 27.9147C18.1422 27.5365 17.444 28.2634 17.8409 28.8855C18.2378 29.5077 19.5795 29.7895 18.9265 30.1677C13.9415 33.0547 9.27297 32.8513 5.76702 30.3847C2.3661 27.992 0.344821 23.6667 0.0255461 18.823C-0.319711 13.5852 2.85128 9.33087 8.52898 7.62126Z" fill="white"/>
<path d="M17.8638 25.4903C18.3897 25.4474 18.8534 25.8081 18.8996 26.2958C19.104 28.4549 19.4356 31.459 19.7653 34.1228C20.0986 36.8148 20.4212 39.0842 20.6036 39.8255C20.6082 39.8292 20.6165 39.8354 20.6299 39.8431C20.6993 39.8827 20.8595 39.9413 21.1627 39.9696C21.772 40.0264 22.6721 39.9368 23.7852 39.7007C25.9874 39.2337 28.7169 38.2616 30.9458 37.2283C31.2279 37.0975 31.498 36.9716 31.7572 36.8508L31.7577 36.8505L31.7577 36.8505C33.5369 36.021 34.8045 35.4299 35.9546 35.1371C37.3748 34.7754 38.6033 34.8621 40.3521 35.2714C41.3919 35.5147 42.4533 35.6693 43.4571 35.8155L43.4572 35.8155C44.0469 35.9014 44.6168 35.9844 45.1508 36.0809C45.4918 36.1424 45.8184 36.2106 46.1058 36.2908C46.3801 36.3673 46.6835 36.4719 46.9376 36.6297C47.1843 36.7829 47.5603 37.1022 47.5756 37.6289C47.5896 38.1129 47.576 38.2303 47.576 38.2303C46.7265 38.2303 46.9376 38.0612 45.7516 37.9833C45.6656 37.9661 44.8823 37.8387 44.7855 37.8212C44.3843 37.7487 43.8807 37.6746 43.3248 37.5928L43.3247 37.5928C42.2532 37.435 40.9873 37.2486 39.8844 36.9905C38.3076 36.6214 37.4422 36.5969 36.4606 36.8468C35.507 37.0896 34.4347 37.5887 32.599 38.4431L32.5971 38.444C32.3464 38.5607 32.0813 38.684 31.8004 38.8143C29.472 39.8937 26.5972 40.9232 24.2113 41.4291C23.0304 41.6796 21.8904 41.8193 20.9716 41.7337C20.0981 41.6522 19.0071 41.3052 18.7401 40.2202C18.5284 39.3602 18.1941 36.9732 17.8663 34.325C17.535 31.6486 17.2015 28.6285 16.9954 26.4509C16.9492 25.9632 17.338 25.5331 17.8638 25.4903Z" fill="white"/>
<path fill-rule="evenodd" clip-rule="evenodd" d="M48.0561 3.05789C44.3077 2.21918 40.0041 3.46261 36.9047 7.82601C32.001 14.7294 24.9463 14.9936 18.3766 14.9936C17.6116 14.9936 15.2923 13.5201 15.2923 12.7435C15.2923 11.9669 17.6116 12.1813 18.3766 12.1813C25.0103 12.1813 30.6541 11.8172 34.6575 6.18116C38.3998 0.912643 43.8187 -0.770083 48.6524 0.311488C53.441 1.38295 57.5863 5.15707 58.8544 10.5804C60.232 16.4725 59.2265 20.467 56.5378 23.0948C53.9865 25.5884 50.18 26.5558 46.6993 27.1654C45.9454 27.2975 45.2288 26.7841 45.0988 26.0188C44.9687 25.2535 45.4744 24.5261 46.2283 24.394C49.7094 23.7844 52.7326 22.91 54.6163 21.0688C56.3628 19.3619 57.3978 16.5287 56.1588 11.2299C55.1463 6.89933 51.8497 3.90672 48.0561 3.05789Z" fill="white"/>
<path fill-rule="evenodd" clip-rule="evenodd" d="M36.0223 18.9034C35.1899 18.7829 34.6896 18.9171 34.3653 19.224C33.2623 20.2676 31.4308 21.2706 29.6847 22.084C27.9103 22.9105 26.1114 23.5918 24.9881 23.9694C24.5082 24.1308 23.0954 23.4284 22.9374 22.9382C22.7795 22.4479 23.9362 22.3553 24.4162 22.194C25.4847 21.8348 27.2202 21.1777 28.9254 20.3834C30.6589 19.5759 32.2522 18.6756 33.1218 17.8528C34.0305 16.9931 35.2034 16.8971 36.2791 17.0528C37.3505 17.208 38.5129 17.6387 39.5928 18.066C39.8069 18.1507 40.018 18.2354 40.2261 18.3188C41.1076 18.6724 41.9352 19.0043 42.7103 19.2275C43.6891 19.5094 44.3708 19.5486 44.817 19.3806C45.0816 19.281 45.3964 19.2101 45.7274 19.2593C46.0895 19.3132 46.3952 19.5001 46.6126 19.7787C46.8107 20.0324 46.9065 20.3232 46.9576 20.5698C47.0099 20.8225 47.0283 21.0928 47.0299 21.3588C47.0347 22.1675 46.8762 23.2875 46.7084 24.4726C46.6663 24.7702 46.6236 25.0719 46.5828 25.3739C46.3709 26.9399 46.1874 28.6282 46.2619 30.2106C46.3368 31.8001 46.6684 33.1776 47.3979 34.1948C47.6965 34.6111 47.6082 35.1959 47.2006 35.501C46.7929 35.806 46.2204 35.7157 45.9218 35.2993C44.89 33.8607 44.5171 32.0609 44.4342 30.3004C44.351 28.5329 44.5564 26.6985 44.7702 25.118C44.818 24.7646 44.8654 24.4284 44.9102 24.1099C45.0738 22.9487 45.204 22.0247 45.2001 21.3702C45.1998 21.3143 45.1984 21.2635 45.1962 21.2175C44.2379 21.4869 43.1749 21.3032 42.2138 21.0265C41.342 20.7754 40.4063 20.3997 39.52 20.0439C39.321 19.964 39.1246 19.8851 38.9319 19.8089C37.8396 19.3767 36.859 19.0246 36.0223 18.9034Z" fill="white"/>
</svg>
