<svg width="28" height="22" viewBox="0 0 28 22" fill="none" xmlns="http://www.w3.org/2000/svg">
<path d="M27.8075 1.7C27.8075 1.04 27.2675 0.5 26.6075 0.5H1.40752C0.74752 0.5 0.20752 1.04 0.20752 1.7V20.3C0.20752 20.96 0.74752 21.5 1.40752 21.5H26.6075C27.2675 21.5 27.8075 20.96 27.8075 20.3V1.7ZM25.4075 2.9V12.95L23.3975 11.27C22.9475 10.91 22.3175 10.91 21.8675 11.27L18.6275 13.97L11.0975 7.43003C10.6475 7.04003 10.0175 7.04 9.5675 7.4L2.63751 13.01V2.9H25.4075ZM2.60752 19.1V16.1L10.2875 9.89001L17.8175 16.43C18.2675 16.82 18.9275 16.82 19.3775 16.46L22.6175 13.76L25.4075 16.1V19.1H2.60752ZM15.8375 6.98003C15.8375 5.78003 16.8275 4.79001 18.0575 4.79001C19.2875 4.79001 20.2775 5.78003 20.2775 6.98003C20.2775 8.18003 19.2875 9.16997 18.0575 9.16997C16.8275 9.16997 15.8375 8.18003 15.8375 6.98003Z" fill="#BDBDBD"/>
</svg>
