<svg width="24" height="24" viewBox="0 0 24 24" fill="none" xmlns="http://www.w3.org/2000/svg">
<path d="M10.805 13.9002C10.805 13.5202 10.485 13.2002 10.105 13.2002H7.50503C7.12503 13.2002 6.80503 13.5202 6.80503 13.9002V16.5002C6.80503 16.8802 7.12503 17.2002 7.50503 17.2002H10.105C10.485 17.2002 10.805 16.8802 10.805 16.5002V13.9002ZM8.20503 14.6002H9.40503V15.8002H8.20503V14.6002ZM20.985 7.88018L19.205 6.08018V4.0002C19.205 3.5602 18.845 3.2002 18.385 3.2002H5.60503C5.16503 3.2002 4.78504 3.5602 4.78504 4.0002V6.08018L3.00503 7.88018C2.86503 8.02018 2.78504 8.24023 2.78504 8.44023V10.4802C2.78504 10.9202 3.14504 11.2202 3.58504 11.2202H20.385C20.825 11.2202 21.185 10.9402 21.185 10.4802V8.44023C21.205 8.22023 21.125 8.02018 20.985 7.88018ZM17.605 4.8002V5.8002H6.40503V4.8002H17.605ZM19.605 9.60019H4.40503V8.76016L6.04504 7.2002H17.965L19.605 8.76016V9.60019ZM20.005 12.8202V20.0002C20.005 20.4402 19.645 20.8002 19.205 20.8002H16.465C16.025 20.8002 15.665 20.4802 15.665 20.0402V15.8002H13.805V20.0002C13.805 20.4402 13.425 20.8002 12.985 20.8002H4.80503C4.36503 20.8002 3.98504 20.4402 3.98504 20.0002V12.8202C3.98504 12.3802 4.34504 12.0202 4.78504 12.0202C5.22504 12.0202 5.58504 12.3802 5.58504 12.8202V19.2002H12.185V14.9202C12.185 14.4802 12.525 14.2002 12.965 14.2002H16.425C16.865 14.2002 17.165 14.4802 17.165 14.9202V19.2002H18.365V12.8202C18.365 12.3802 18.725 12.0202 19.165 12.0202C19.605 12.0202 20.005 12.3802 20.005 12.8202Z" fill="#587B67"/>
</svg>
